<svg viewBox="0 0 903 400" xmlns="http://www.w3.org/2000/svg"><g><g><g><g><g><line x1="51.772003173828125" y1="376.8999996185303" x2="46.772003173828125" y2="376.8999996185303" style="visibility: inherit;" fill="rgb(0, 0, 0)" stroke="rgb(204, 204, 204)" stroke-width="1px"></line><line x1="51.772003173828125" y1="323.05714253016885" x2="46.772003173828125" y2="323.05714253016885" style="visibility: inherit;" fill="rgb(0, 0, 0)" stroke="rgb(204, 204, 204)" stroke-width="1px"></line><line x1="51.772003173828125" y1="269.21428544180736" x2="46.772003173828125" y2="269.21428544180736" style="visibility: inherit;" fill="rgb(0, 0, 0)" stroke="rgb(204, 204, 204)" stroke-width="1px"></line><line x1="51.772003173828125" y1="215.37142835344585" x2="46.772003173828125" y2="215.37142835344585" style="visibility: inherit;" fill="rgb(0, 0, 0)" stroke="rgb(204, 204, 204)" stroke-width="1px"></line><line x1="51.772003173828125" y1="161.52857126508437" x2="46.772003173828125" y2="161.52857126508437" style="visibility: inherit;" fill="rgb(0, 0, 0)" stroke="rgb(204, 204, 204)" stroke-width="1px"></line><line x1="51.772003173828125" y1="107.68571417672293" x2="46.772003173828125" y2="107.68571417672293" style="visibility: inherit;" fill="rgb(0, 0, 0)" stroke="rgb(204, 204, 204)" stroke-width="1px"></line><line x1="51.772003173828125" y1="53.8428570883614" x2="46.772003173828125" y2="53.8428570883614" style="visibility: inherit;" fill="rgb(0, 0, 0)" stroke="rgb(204, 204, 204)" stroke-width="1px"></line><line x1="51.772003173828125" y1="0" x2="46.772003173828125" y2="0" style="visibility: inherit;" fill="rgb(0, 0, 0)" stroke="rgb(204, 204, 204)" stroke-width="1px"></line></g><g transform="translate(41.772003173828125, 0)"><text style="text-anchor: end; visibility: hidden; font-family: Roboto, sans-serif; font-size: 12px; font-weight: 200;" x="0" y="376.8999996185303" dx="0em" dy="0.3em" fill="rgb(255, 255, 255)" stroke="none" stroke-width="1px">0.25</text><text style="text-anchor: end; visibility: inherit; font-family: Roboto, sans-serif; font-size: 12px; font-weight: 200;" x="0" y="323.05714253016885" dx="0em" dy="0.3em" fill="rgb(255, 255, 255)" stroke="none" stroke-width="1px">0.3</text><text style="text-anchor: end; visibility: inherit; font-family: Roboto, sans-serif; font-size: 12px; font-weight: 200;" x="0" y="269.21428544180736" dx="0em" dy="0.3em" fill="rgb(255, 255, 255)" stroke="none" stroke-width="1px">0.35</text><text style="text-anchor: end; visibility: inherit; font-family: Roboto, sans-serif; font-size: 12px; font-weight: 200;" x="0" y="215.37142835344585" dx="0em" dy="0.3em" fill="rgb(255, 255, 255)" stroke="none" stroke-width="1px">0.4</text><text style="text-anchor: end; visibility: inherit; font-family: Roboto, sans-serif; font-size: 12px; font-weight: 200;" x="0" y="161.52857126508437" dx="0em" dy="0.3em" fill="rgb(255, 255, 255)" stroke="none" stroke-width="1px">0.45</text><text style="text-anchor: end; visibility: inherit; font-family: Roboto, sans-serif; font-size: 12px; font-weight: 200;" x="0" y="107.68571417672293" dx="0em" dy="0.3em" fill="rgb(255, 255, 255)" stroke="none" stroke-width="1px">0.5</text><text style="text-anchor: end; visibility: inherit; font-family: Roboto, sans-serif; font-size: 12px; font-weight: 200;" x="0" y="53.8428570883614" dx="0em" dy="0.3em" fill="rgb(255, 255, 255)" stroke="none" stroke-width="1px">0.55</text><text style="text-anchor: end; visibility: hidden; font-family: Roboto, sans-serif; font-size: 12px; font-weight: 200;" x="0" y="0" dx="0em" dy="0.3em" fill="rgb(255, 255, 255)" stroke="none" stroke-width="1px">0.6</text></g><line x1="51.772003173828125" y1="0" x2="51.772003173828125" y2="376.8999996185303" fill="rgb(0, 0, 0)" stroke="rgb(204, 204, 204)" stroke-width="1px"></line></g></g><g transform="translate(51, 0)" clip-path="url(#clip_0)"><clipPath id="clip_0"><rect width="851" height="376"></rect></clipPath><g><g><g><line x1="0" y1="0" x2="0" y2="376.8999996185303" fill="rgb(0, 0, 0)" stroke="rgb(189, 189, 189)" stroke-width="1px" opacity="0.25"></line><line x1="70.93566640218098" y1="0" x2="70.93566640218098" y2="376.8999996185303" fill="rgb(0, 0, 0)" stroke="rgb(189, 189, 189)" stroke-width="1px" opacity="0.25"></line><line x1="141.87133280436197" y1="0" x2="141.87133280436197" y2="376.8999996185303" fill="rgb(0, 0, 0)" stroke="rgb(189, 189, 189)" stroke-width="1px" opacity="0.25"></line><line x1="212.80699920654297" y1="0" x2="212.80699920654297" y2="376.8999996185303" fill="rgb(0, 0, 0)" stroke="rgb(189, 189, 189)" stroke-width="1px" opacity="0.25"></line><line x1="283.74266560872394" y1="0" x2="283.74266560872394" y2="376.8999996185303" fill="rgb(0, 0, 0)" stroke="rgb(189, 189, 189)" stroke-width="1px" opacity="0.25"></line><line x1="354.67833201090497" y1="0" x2="354.67833201090497" y2="376.8999996185303" fill="rgb(0, 0, 0)" stroke="rgb(189, 189, 189)" stroke-width="1px" opacity="0.25"></line><line x1="425.61399841308594" y1="0" x2="425.61399841308594" y2="376.8999996185303" fill="rgb(0, 0, 0)" stroke="rgb(189, 189, 189)" stroke-width="1px" opacity="0.25"></line><line x1="496.54966481526696" y1="0" x2="496.54966481526696" y2="376.8999996185303" fill="rgb(0, 0, 0)" stroke="rgb(189, 189, 189)" stroke-width="1px" opacity="0.25"></line><line x1="567.4853312174479" y1="0" x2="567.4853312174479" y2="376.8999996185303" fill="rgb(0, 0, 0)" stroke="rgb(189, 189, 189)" stroke-width="1px" opacity="0.25"></line><line x1="638.4209976196289" y1="0" x2="638.4209976196289" y2="376.8999996185303" fill="rgb(0, 0, 0)" stroke="rgb(189, 189, 189)" stroke-width="1px" opacity="0.25"></line><line x1="709.3566640218099" y1="0" x2="709.3566640218099" y2="376.8999996185303" fill="rgb(0, 0, 0)" stroke="rgb(189, 189, 189)" stroke-width="1px" opacity="0.25"></line><line x1="780.2923304239908" y1="0" x2="780.2923304239908" y2="376.8999996185303" fill="rgb(0, 0, 0)" stroke="rgb(189, 189, 189)" stroke-width="1px" opacity="0.25"></line><line x1="851.2279968261719" y1="0" x2="851.2279968261719" y2="376.8999996185303" fill="rgb(0, 0, 0)" stroke="rgb(189, 189, 189)" stroke-width="1px" opacity="0.25"></line></g><g><line x1="0" y1="376.8999996185303" x2="851.2279968261719" y2="376.8999996185303" fill="rgb(0, 0, 0)" stroke="rgb(189, 189, 189)" stroke-width="1px" opacity="0.25"></line><line x1="0" y1="323.05714253016885" x2="851.2279968261719" y2="323.05714253016885" fill="rgb(0, 0, 0)" stroke="rgb(189, 189, 189)" stroke-width="1px" opacity="0.25"></line><line x1="0" y1="269.21428544180736" x2="851.2279968261719" y2="269.21428544180736" fill="rgb(0, 0, 0)" stroke="rgb(189, 189, 189)" stroke-width="1px" opacity="0.25"></line><line x1="0" y1="215.37142835344585" x2="851.2279968261719" y2="215.37142835344585" fill="rgb(0, 0, 0)" stroke="rgb(189, 189, 189)" stroke-width="1px" opacity="0.25"></line><line x1="0" y1="161.52857126508437" x2="851.2279968261719" y2="161.52857126508437" fill="rgb(0, 0, 0)" stroke="rgb(189, 189, 189)" stroke-width="1px" opacity="0.25"></line><line x1="0" y1="107.68571417672293" x2="851.2279968261719" y2="107.68571417672293" fill="rgb(0, 0, 0)" stroke="rgb(189, 189, 189)" stroke-width="1px" opacity="0.25"></line><line x1="0" y1="53.8428570883614" x2="851.2279968261719" y2="53.8428570883614" fill="rgb(0, 0, 0)" stroke="rgb(189, 189, 189)" stroke-width="1px" opacity="0.25"></line><line x1="0" y1="0" x2="851.2279968261719" y2="0" fill="rgb(0, 0, 0)" stroke="rgb(189, 189, 189)" stroke-width="1px" opacity="0.25"></line></g></g></g><g><g><line x1="0" y1="646.1142850603377" x2="851.2279968261719" y2="646.1142850603377" fill="rgb(0, 0, 0)" stroke="rgb(153, 153, 153)" stroke-width="1.5px"></line></g></g><g><g><line x1="70.93566640218098" y1="0" x2="70.93566640218098" y2="376.8999996185303" fill="rgb(0, 0, 0)" stroke="rgb(153, 153, 153)" stroke-width="1.5px"></line></g></g><g><g><g><g><g><path style="fill: none;" stroke="rgb(187, 187, 187)" stroke-width="2px" d="M71.20522193450928,491.41812938356287L72.70905806223551,180.98386760435253L73.81565445810953,289.5118781223114L75.03574792022705,189.50293481729827L75.2911163192749,-62.685595171344644L78.28460144144694,-7.781319251137665L78.79533823954264,40.901631005145L79.51888203684489,84.63094520214442L79.94449603525797,-3.8104864852423335L82.04419176076253,-24.5175174296795L83.84595768737793,8.884874242948083L84.498565818278,26.82571646288113L85.49166514790853,57.17117039881466L85.87471774648031,-10.410851208426712L88.03116200510661,16.013898415721986L88.25815613759359,31.736142370830187L88.45677600351969,28.289346017658414L89.97479926452637,50.304999119957614L90.08829633076986,70.31604159025359L90.64159452870686,79.76696599470715L90.82602726135254,86.86411706246719L90.95371146087646,76.37009708749552L92.11705638987223,85.34763408877126L92.1454306564331,86.7580401276149L92.38661192220052,82.59825457696256L92.45754758860271,47.046253102867695L94.14581644897461,30.330842347619257L94.91192164611816,20.568349677845173L95.63546544342041,7.790814050234485L96.24551217447916,-30.04701538733211L97.13930157114665,-9.713274849678843L97.45141850331625,4.7327033161820875L98.60057629903157,6.6227030696533795L99.18224876352946,-17.118954783789317L102.04804968617756,-6.193966013991402L103.05533614908855,2.2363316568800107L103.53769868062336,-5.662921678075508L103.84981561279297,5.664533883693323L103.8640027460734,15.109621012094188L110.54614252115884,7.378093217698446L111.97904298248291,13.146508453214965L112.04997864888509,21.87855760080192L112.36209558105469,21.39227271568842L112.41884411417644,24.117393925205054L113.1140136449178,13.70039997131885L114.36248137359618,18.018857008408933L114.70297257232667,18.44172030111546L115.29883217010497,25.27132182348581L115.44070350290934,31.246186067562785L116.10749876708984,36.911201897565746L116.29193149973551,36.86091386569246L116.51892563222249,42.09925609538559L116.68917123158774,50.50089000181164L117.61133489481608,50.906317371036856L117.88089042714438,54.05662521798887L118.33487869211834,60.59829257044507L118.81724122365316,66.32770080718247L119.07260962270101,71.2905482949753L120.88856268259686,74.24180529259796L122.64776720937094,76.69223633483392L122.66195434265137,83.1229321516001L122.98825840810139,69.51940932940842L123.00244554138183,73.5922025335228L123.71180220540366,69.92100064695612L124.61977873535156,75.17418679283388L124.91770853424072,72.29138296764394L125.32913539937337,50.292717424211006L125.71218799794515,41.62207585215863L125.75474939778645,43.58476196122684L127.21602412567138,49.54020415968598L127.99631645609539,41.78537018839548L129.30153271789553,46.24221185284216L129.55690111694335,24.40226085393781L129.93995371551514,29.02229953002481L130.62093611297607,34.90291274977246L131.17423431091308,38.11243086151696L131.48635124308268,37.40366335510204L132.11058510742188,39.58629532075499L132.22408217366535,33.833033961781936L132.33757923990885,38.76958725924708L132.38014063975015,44.86154233799742L133.0611230372111,50.64028849860134L134.18190656636554,56.24076837041945L135.26012869567873,43.83136170782048L136.33835082499186,46.85216273927491L136.63628062388102,51.3825973101349L137.47332148742677,47.825992887465866L138.09755535176595,53.03130696281472L138.2678009511312,56.32463244315194L139.67232714589437,60.13335875910356L139.89932127838134,65.20164113116296L140.3533095433553,69.68069986915836L140.87823347473145,73.9281836917656L141.07685334065755,77.90873108771865L141.644338671875,80.75292745198527L143.27585899912518,70.24667178103353L143.47447886505128,70.92227997928558L145.58836172383627,76.42754348795872L146.9361393854777,80.64084642957928L147.34756625061036,83.3993111756829L148.68115677897134,78.9520258032655L149.3337649098714,79.103648411196L150.85178817087808,83.51796012106612L151.73139043426514,77.90844607932875L151.78813896738689,75.00839243147487L151.90163603363038,79.12018002065962L152.59680556437175,79.41564868286123L153.093355229187,82.68910110033066L155.9449690185547,86.17240934629692L156.0726532180786,88.29593888124651L156.1010274846395,86.92825540363049L156.83875841522217,86.67674965343258L156.9238812149048,90.64659354856681L157.20762388051352,94.41370329035597L157.7183606786092,98.33479190789458L157.9027934112549,96.4329142927374L158.2574717432658,100.28997653793427L158.48446587575276,100.3345801760035L158.85333134104408,101.51784891356675L159.42081667226157,104.4382117136368L159.80386927083333,100.55093752334865L160.56997446797686,97.29457549307864L161.2793311319987,97.46230872507692L162.102184862264,99.95950712303647L165.57803251597088,99.9491193527578L167.16699144337971,103.35519621892459L168.42964630533854,104.76215392324016L168.997131636556,108.19123790041279L169.1957515024821,104.31177822319803L170.40165783131917,106.3962073563937L170.79889756317138,107.97049454899651L171.06845309549968,110.00586961345438L172.0189910252889,112.31451219942075L173.02627748819987,112.42482108874503L173.55120141957602,114.37185569792976L173.65051135253904,116.47484654815173L175.05503754730225,119.90993274519343L175.40971587931315,119.32777289985617L175.99138834381102,115.89923211289725L176.91355200703939,118.04909166314336L176.94192627360027,116.85346280962428L177.33916600545248,119.02034836933917L177.35335313873293,115.97697603583688L177.4242888051351,119.01129189939515L177.5094116048177,121.13567398016087L180.21915406138103,114.26152087436157L180.6022066599528,116.59232277296456L180.8292007924398,115.31839768070463L180.9143235921224,117.66558396552607L181.1838791244507,120.11171299323247L181.25481479085286,122.8092552793515L181.39668612365725,114.74135678038584L181.63786738942466,117.63179005377074L183.5815046488444,119.70446408478116L183.9361829808553,122.43279604095225L184.78741097768147,116.9239622084375L185.48258050842287,118.99660465176339L185.59607757466634,118.77206805300838L186.73104823710122,117.0076512246316L186.787796770223,118.32566187852446L187.96532883249918,120.96089071630566L188.03626449890137,123.66264097410037L188.06463876546223,123.89373663042248L188.97261529541015,123.51668129967858L189.9657146250407,124.9293711708804L190.81694262186684,125.27610182151885L191.5830478190104,120.93248779907287L192.33496588287355,123.76249678154005L192.675457081604,125.01177842050672L193.21456814626058,127.4628430914329L193.73949207763673,127.8055019510862L193.99486047668455,128.8483815346097L195.28588960520426,131.07050434439753L195.73987787017822,132.8140102336911L195.79662640329997,134.29605073776298L195.82500066986086,135.40627222985165L196.40667313435873,137.93427234202608L197.0309069986979,139.69303082342077L197.91050926208496,137.43595907797777L198.10912912801106,139.91215834258435L198.77592439219157,141.9855753817058L199.05966705780028,140.29252643316832L200.22301198679605,142.69095547827402L200.26557338663739,144.4123803413301L200.67700025177,145.4067120714874L201.31542124938963,146.78794295378796L201.82615804748536,146.6339244438972L202.45039191182454,147.78187800399843L203.1313743092855,149.85177324977332L204.67777183685303,151.94052499595384L206.84840322875976,154.31554872765938L207.2172686940511,155.9954342864046L208.3948007563273,155.81782117824113L209.67164275156657,153.1320262719341L209.78513981781006,154.9399503324976L211.14710461273194,156.15157437879353L211.5159700780233,157.80983164715303L214.04127980194093,159.49525013439305L214.16896400146484,155.2374425066945L215.2755603973389,155.41354404454827L215.87141999511718,152.1036097585598L215.94235566151934,153.5126296776189L216.4389053263346,155.17555303258266L216.90708072458906,155.84369773773182L217.361068989563,157.23612831059685L217.77249585469565,158.93317834129022L217.80087012125654,160.46298787774796L218.52441391855874,158.89566903202189L218.66628525136312,161.02954339906316L219.2905191157023,161.5372876304097L219.38982904866535,161.4674771335583L220.028250046285,163.10329541839062L222.44006270395911,164.6779476055235L223.41897490030925,166.30804183645049L223.92971169840496,168.23729609805306L224.92281102803548,169.65869958480533L225.66054195861815,171.71992185504334L226.3273372227987,173.10245057582424L226.52595708872477,173.52208414996107L226.89482255401612,175.33006463601413L227.39137221883138,177.28793613951328L227.84536048380534,177.03664917901642L228.9945182795207,175.4482010003586L230.44160587412514,177.13931873099824L230.5834772069295,178.97403363010685L230.90978127237955,178.6058963852025L232.52711446634927,176.45949282959518L233.1655354639689,178.35166265228688L233.8748921279907,176.5728194741173L233.917453527832,174.39520119924242L234.22957046000164,175.98116724003597L235.22266978963216,177.5260840317747L235.44966392211916,178.59532783863142L235.80434225413006,176.12295206958095L236.24414338582358,177.45784107389244L236.65557025095623,179.10674465784436L237.18049418233235,177.1160991175351L237.1946813156128,171.10045610908276L237.20886844889324,171.81383385246616L237.37911404825846,172.3512477678293L237.60610818074545,173.755040608472L237.71960524698892,171.9830940032484L237.9324122461955,173.58880723499428L239.05319577534993,175.1475128797884L239.4646226404826,170.2496599445762L239.96117230529785,171.31573282232245L240.2165407043457,173.06164581734512L241.09614296773276,174.8878868724702L241.36569850006106,173.7431681159873L241.47919556630453,175.14273283124726L242.72766329498293,175.22796418917653L243.74913689117432,173.6496481388147L243.79169829101562,175.16132062917313L243.80588542429604,175.27671908700972L244.60036488800048,176.01591464665483L245.4657800181071,173.09744819157422L245.5509028177897,174.7084997677316L245.56508995107012,176.30677592420278L245.66439988403323,173.5808597359893L246.40213081461587,174.90984848843763L246.67168634694417,176.46011560978832L247.39523014424643,174.07544058691388L247.934341208903,174.47896599770124L248.7571949391683,175.51767606387023L248.78556920572916,176.70151529465596L249.75029426879883,176.74274322175575L249.94891413472496,177.99150963529607L250.06241120096843,177.65636454388107L255.15559204864505,179.27960042496537L255.26908911488852,180.71617676043377L255.4251475809733,178.02168361322467L255.79401304626464,174.00323385488232L256.50336971028645,170.19652157344666L256.88642230885824,171.01492424064264L256.97154510854085,172.38807407377223L258.4186327031453,172.1914094152302L258.50375550282797,173.7686277644795L260.3622699625651,175.41236794402852L261.44049209187824,177.05427320496366L261.68167335764565,176.1893557571985L262.27753295542396,177.54377501898733L262.56127562103273,174.92242232694065L264.95890114542647,176.21655032060067L267.0727840042114,176.5995280563413L267.54095940246583,174.22604636421076L267.938199134318,174.48902290242052L268.51987159881594,173.84796000451513L269.0164212636312,175.06501691856508L269.3285381958008,176.12410280353544L269.4845966618856,175.69026313853462L271.1019298558553,174.37226792608575L272.0099063858032,175.5666018292226L272.8611343826294,176.13838879336043L274.5919646428426,177.34272209079282L274.64871317596436,177.40903286270145L275.6418125055949,178.8093940872679L276.2660463699341,179.86283522642208L276.7767831680298,180.86519455308365L277.0037773005168,180.93644530048383L277.79825676422115,182.21785320944358L278.47923916168213,182.54015776551432L278.53598769480385,183.90040784287254L278.57854909464515,185.19762831773537L278.96160169321695,186.23740123096144L279.23115722554525,187.23684923935025L279.89795248972575,186.40580882097674L279.9263267562866,187.00288917736623L279.95470102284753,184.74894530262688L281.2031687515259,184.0725884003905L281.9692739486694,182.57193423443007L282.735379145813,184.1149698444665L283.65754280904133,185.32088602026732L286.8496477971395,186.0160796433521L286.90639633026126,187.42230673370867L287.51644306132,188.62135980090486L287.9704313262939,188.49034976696038L288.0271798594157,189.3671605754408L288.7932850565592,188.20072840898783L291.4888403798421,187.85897436723886L293.3615419728597,188.41492799935844L294.1418343032837,189.36863384325113L294.79444243418374,188.94941737528438L295.37611489868164,188.7987234735229L296.01453589630125,188.80958026464174L297.12113229217533,189.87713420351446L297.5183720240275,191.22169466313954L297.631869090271,190.98842856047025L298.6959040863037,192.3295844031311L299.0647695515951,192.5289679476606L299.1357052179972,193.6848655315402L301.76032487487794,190.7882831254736L302.5689914718628,189.9225696435162L303.7039621342977,190.9643465471903L304.5551901311239,189.68354445598672L304.7112485972086,190.75445304031985L305.1226754623413,190.9401290736323L305.7752835932414,191.94887616815288L308.00266351826986,192.24771171942132L308.15872198435466,193.49572516206504L308.45665178324384,193.91515945678785L309.3504411799113,191.0985496652109L309.4497511128743,191.8771683616627L311.0245229070028,192.75560643684003L311.1238328399658,193.67013077547227L311.8473766372681,194.89046161315105L312.04599650319415,195.71026988516857L314.07475656229656,196.17388112692933L314.8834231592814,196.91740891401494L315.6637154897054,197.7563519124185L316.0183938217163,198.93167770154471L317.7208498153687,196.97169806416537L318.95513041076657,197.25641187947335L319.43749294230145,198.2817256940605L319.65029994150797,198.67769035620876L319.72123560791016,198.94606947623893L320.6433992711385,199.96181929351545L320.7001478042602,200.92095741273923L320.9413290700277,201.24830593587433L322.1897967987061,202.17999128414104L322.9133405960083,202.99707739147627L322.9275277292887,204.18325885563374L323.01265052897134,204.80634420373798L323.65107152659095,203.12704662866165L323.86387852579753,204.25640213600218L324.10505979156494,205.17718067349057L324.36042819061277,206.2890065067375L324.92791352183025,207.4875981146639L325.12653338775635,208.3323289354625L327.3964747126261,209.38875933250148L327.8504629776001,208.37212050467255L328.0065214436849,209.32436263200415L328.8010009073893,209.09998386086764L329.39686050516764,207.1129955007156L329.51035757141113,208.10417343550745L329.96434583638506,208.85145492166063L331.89379596252445,209.80896252507588L332.36197136077885,211.064512034878L333.6530004892985,209.02361133080873L333.7948718221029,210.08708989467812L334.4758542195638,210.32244836074432L335.04333955078124,211.43855074789363L335.55407634887695,211.50534792240703L336.40530434570314,212.67217646220757L337.22815807596845,209.8371340490491L339.0724854024251,210.30776370073647L339.8102163330078,211.28448204776092L340.5053858637492,210.50619649478227L341.6119822596232,211.6297599814422L341.62616939290365,212.5206372385456L342.44902312316896,211.38573647078059L343.7400522516886,211.85982722502658L344.36428611602787,212.93166255948847L345.1871398462932,213.94570439770877L345.47088251190183,212.0893353142374L345.768812310791,212.88952575312888L350.96130309143064,213.11329228461534L351.0180516245524,213.4510091894534L352.72050761820475,212.5878341584989L353.23124441630046,211.6489660737227L353.45823854878745,212.5820477414864L353.50079994862875,212.32007310803004L353.92641394704185,212.94203808709486L354.5932092112223,213.87831327386584L355.4728114746094,213.24945056896024L355.6856184738159,213.56397125024546L356.3240394714356,214.62464654749195L356.664530670166,215.40302934192016L357.34551306762694,216.44927660207358L357.44482300059,217.42119342119398L357.45901013387044,214.47438314498055L357.70019139963784,214.34376869218113L357.87043699900306,215.24476529224742L359.6012672592163,215.69505712136768L359.77151285858156,216.70639258664787L361.6867758514404,217.20404451255263L362.28263544921873,218.190181530862L364.6518867070516,219.02449997398236L365.7301088363647,219.54848028093838L365.7584831029256,219.45120426487526L366.680646766154,219.3203930314625L366.8225180989583,219.721358140908L367.4893133631389,220.23674905246685L368.0709858276367,221.3419937191233L369.77344182128905,222.209617640648L369.90112602081297,222.5038951130152L369.95787455393474,223.12293086317047L370.79491541748047,223.93141184719377L371.9866346130371,224.84882527780996L373.3911608078003,225.71837467982323L373.9586461390178,226.67898741232676L374.1005174718221,227.503406483795L374.17145313822425,228.41752325864746L374.228201671346,229.21283230311144L375.40573373362224,229.45707157684802L376.52651726277674,230.18827908956638L377.4344937927246,228.66650403755673L378.65458725484217,228.79582200838607L379.0660141199748,227.6286395673738L379.3071953857422,227.9532164292907L379.71862225087483,228.83241034335103L379.9739906499227,229.7132352767751L380.1016748494466,230.67877613325072L380.64078591410316,231.5240078463921L382.31486764119467,232.1503636325298L382.62698457336427,232.84613196012842L382.8397915725708,232.91878027746674L384.7692416987101,233.6017323857622L384.7834288319906,233.61021955685771L384.9111130315145,232.35037092395456L384.9678615646362,233.231970144647L385.20904283040363,234.09370032789076L385.46441122945146,234.67572678604552L387.26617715606693,235.4886135554467L388.7132647506714,236.2582249084294L389.479369947815,236.1948203987192L390.6569020100912,236.28639509715342L390.7420248097738,237.12163222189088L392.4019194035848,237.78759286253526L393.70713566538495,238.12281422331418L394.4023051961263,238.47689680473547L395.3954045257569,238.304325255613L395.8919541905721,238.72379513187772L396.1047611897786,239.62842008774692L397.42416458485917,238.62237075481602L397.4667259847005,237.99486691221088L398.2470183151245,238.9145793752707L399.367801844279,239.8512480067692L399.6373573766072,239.06763080028972L399.9636614420573,239.36922440266136L403.02808223063147,237.83996690007484L403.36857342936196,238.38863619978144L403.90768449401855,237.50730244434075L404.13467862650555,237.95073233768383L404.30492422587076,238.74492710985237L405.35477208862306,239.55263092841633L405.4115206217448,239.1878102613366L405.6385147542318,240.07039701147792L405.8938831532796,240.17931029043257L407.8800818125407,238.74617261307435L410.83100553487145,237.66117700404973L411.6538592651367,236.60015134534186L412.2922802627564,237.45104485511254L412.4483387288411,237.86566171682722L412.7604556610107,238.6704256542333L413.0867597264608,239.56540724963887L413.93798772328694,240.36062950391587L414.25010465545654,240.91190120071198L415.25739111836754,241.35681488245336L415.31413965148926,241.01308361343595L415.35670105133056,241.60296768692848L415.9525606491089,241.7678729198372L416.44911031392417,241.75912138301615L416.7896015126546,242.67794792045402L416.8179757792155,243.39825899305353L418.4211218399048,242.49732542945972L419.3007241032918,243.0205645239387L419.7263381017049,243.33023968879044L421.54229116160076,243.75479841316636L421.59903969472253,244.5124755895856L421.85440809377036,245.3388226114555L421.8827823603312,246.05506834812329L421.9820922932943,246.49097253958044L422.09558935953777,247.21768994209813L422.49282909139,247.58017728065664L423.0745015558879,248.45729784865674L423.3440570882162,248.66416437166106L424.5499634170532,247.67718699620383L425.89774107869465,248.48337407007702L425.9686767450968,249.29300553091974L426.35172934366864,249.736096213381L426.8908404083252,248.12127202330188L427.69950700531,247.84472048556117L429.1324074666341,248.6311118729014L429.6573313980103,249.13162927430147L432.32451245473226,249.2649850731289L432.50894518737795,248.2552511491972L432.56569372049967,248.41586081793488L432.5798808537801,249.14417861948587L432.72175218658447,249.68189410989118L432.97712058563235,249.8917664226513L433.91347138214115,250.51879832299588L433.9702199152629,250.5194636667149L434.8781964452108,250.78516887890507L436.22597410685216,251.250905674021L436.79345943806965,251.12272390773208L440.3544298914591,251.79938920860764L440.7232953567505,252.1809780920434L441.617084753418,252.8947754547615L441.7589560862223,253.67743553628185L442.0285116185506,254.2350109895604L443.2344179473877,254.41132987813955L443.9863360112508,255.11432583524396L444.17076874389653,255.8389740263061L444.4970728093465,255.39037560125632L445.5894820719401,255.9185461655048L445.6178563385009,256.69136194897675L446.2420902028402,257.06608681368175L447.0081953999837,257.70220890814534L447.80267486368814,257.7098467451007L448.65390286051434,258.10064275822896L449.2497624582927,258.740834202563L450.79615998586013,259.5264560778688L451.68994938252763,259.90923743988566L452.1439376475016,259.41439461367906L454.4280661056519,260.0137006653818L454.85368010406495,259.66183754400663L456.6980074305216,260.12622406161086L456.93918869628914,259.9160795955028L457.3648026947021,260.50888346875405L457.5634225606282,261.2592060847373L460.2164164840698,261.66456023068486L460.85483748168946,261.67275153579874L461.39394854634605,262.4331439204983L462.6991648081461,262.93865307130375L462.7133519414266,263.2931237423193L464.27393660227455,263.67788877732295L465.79195986328125,264.311054333012L465.82033412984214,264.6918440224515L466.68574925994875,265.35888392425943L466.72831065979005,265.7231523110426L467.9484041219075,265.5985600198885L471.7221815745036,265.70072982376126L473.6941931004842,266.21122822758196L476.3613741572062,266.94988675288516L478.9859938140869,267.5535129717896L479.8655960774739,267.57576944650003L480.4047071421306,267.7759350483126L480.4756428085327,267.5351936075941L480.74519834086095,268.02912055873355L482.7030227335612,268.6872704048074L484.2777945276896,268.68892902640454L484.49060152689617,268.970294719741L485.1857710576375,269.29895048463453L486.1788703872681,269.55700763562055L486.3207417200725,270.31930766679113L486.5902972524007,270.8529784023581L487.1719697168986,271.5633340777131L487.31384104970294,271.96911859081325L488.23600471293133,272.2208464333639L488.57649591166177,272.6849056638434L488.6048701782226,272.9907787963882L489.1723555094401,273.59769522702277L490.2789519053141,274.1895322590983L490.307326171875,274.55271348006863L491.25786410166415,274.3973768922451L492.5488932301839,274.8272888808965L493.65548962605794,274.83138945397206L496.095676550293,275.2688195340533L496.7908460810344,274.5284146403757L497.1455244130452,274.9208848165572L499.55733707071937,274.490456348351L500.20994520161946,275.1766365804563L500.39437793426515,275.85256988959026L500.80580479939783,276.51826467442174L501.0753603317261,276.3759327847835L501.2456059310913,275.82388303950563L501.2881673309326,275.99577740956926L501.9407754618327,276.76013524620123L502.9196876581828,277.3292508615132L503.1750560572306,277.88165536409554L504.4944594523112,278.2153430759147L504.70726645151774,278.68831392339877L504.8916991841634,278.68390511737533L505.8564242472331,279.1608256137872L507.771687240092,277.4558520240126L507.8993714396159,277.5126861410232L508.0270556391398,276.36683822791053L508.1547398386637,276.93794734566785L508.6938509033203,277.5252870254233L508.7222251698812,276.8977860941152L510.50980396321614,277.59704869188346L510.9779793614705,277.98375239895637L511.20497349395754,278.1648336459473L511.2333477605184,278.3725577273356L512.425066956075,278.91517961395186L513.1627978866577,278.2045245570844L515.2908678787232,278.8150146178442L515.8867274765014,279.4437815268931L515.9860374094645,279.79579991032597L516.8372654062906,280.4142173579428L517.3905636042277,280.40523023010263L517.5749963368734,281.0658462700613L518.5539085332234,281.1137591234679L519.6037563959758,281.6812102255143L519.6321306625366,282.2303102184109L519.6463177958171,282.84612362877596L521.2920252563478,283.41819285600855L522.2283760528564,284.0409000061087L522.9235455835977,284.67866865624256L523.2498496490479,283.30383931515445L523.7747735804239,283.95458726419946L524.5692530441283,284.5651940091807L524.8671828430176,284.4942422847557L525.1792997751871,284.8300673276273L528.0309135645548,285.0283226627667L529.0382000274659,285.32623051624705L530.315042022705,284.7825558530212L530.3859776891072,285.4135063946802L530.5987846883138,286.02811802927033L531.7053810841878,286.24789608053015L531.9891237497966,286.50241080142064L533.4929598775228,285.3540427479509L533.9043867426554,285.73140763604914L536.1743280675253,286.23365938753227L536.7560005320231,286.6120994220749L536.8694975982667,286.9439266855215L537.8767840611775,286.5535626420389L539.1394389231364,286.9083516501763L539.6643628545125,287.5112177619455L540.3169709854126,287.85934200187205L541.3668188481649,288.1407958831844L543.0125263086954,288.0385926422031L543.3388303741455,288.53588984289263L545.7080816319783,288.5032170648281L547.2402920262655,287.82896117610585L547.3963504923503,288.37904597202134L548.2901398890177,288.7390147795433L548.6164439544677,289.2827698272239L549.4818590845744,288.6979623221774L549.9925958826701,287.90656836811684L550.2054028818766,288.28361075695005L552.9293324717204,288.7744636670897L552.9577067382812,289.06161874924084L553.922431801351,289.65148606196925L554.3764200663248,290.30350057016227L555.9653789937337,290.59265475240784L555.9937532602946,290.60352220996555L556.1639988596598,291.1420378282313L558.3062559850057,291.7192676384269L558.4339401845297,291.2361625371847L560.7322557759602,291.6431659900567L561.5834837727864,291.8888033781725L562.2928404368082,291.78335704024715L563.1015070337932,292.33547141592874L563.5129338989258,291.80186474165833L564.4492846954346,289.87910211185834L565.8679980234781,290.19727673290646L566.7617874201457,290.54961250687666L567.031342952474,290.45456048654665L567.5988282836913,291.0089785578868L567.6981382166545,291.5575096131646L569.471529876709,292.105545505213L569.5850269429525,292.4807939567082L569.8545824752807,292.59651208120533L570.2234479405721,293.21856077392647L570.4930034729005,293.3607845489775L570.9328046045939,293.82224828488546L572.3798921991984,294.12442824073327L572.5359506652832,294.68496009958955L572.9615646636963,294.9751411593701L573.8979154602051,294.6663828622166L574.0823481928508,293.86523311196714L574.2809680587768,294.50225865181176L576.4515994506836,294.61978837175434L577.1183947148642,295.0712066551117L577.2886403142294,295.6611952495204L577.3170145807902,295.32436540042477L577.3879502471924,295.8515144295591L578.0405583780924,296.403000339497L578.6080437093099,296.9700736682443L578.8492249750774,297.4359321080137L580.0976927037557,298.0074772218883L583.2046748921713,298.59680028074087L584.4105812210083,299.2191225087746L584.6092010869344,299.78991514244467L585.4604290837606,300.2396290425669L587.2905692769368,300.04478529233864L588.0424873408,300.1790564770409L588.4822884724936,300.5517757117144L588.922089604187,301.0283810630567L589.0781480702717,301.030778334506L589.1916451365154,300.10865404052555L589.3051422027588,300.68731787073483L589.9861246002198,300.2984549623641L591.9155747263591,299.4867627480477L593.376849454244,300.017948741891L593.8875862523397,300.56436266508496L595.1076797144573,301.0950319008751L595.4481709131877,300.87205351178727L596.044030510966,301.3444340939577L596.6540772420248,301.40247629621325L597.6188023050944,301.9103395747529L599.264509765625,301.88499584685803L599.9596792963664,300.27995978347735L600.3143576283774,299.56151984279455L600.8392815597534,299.4536990516992L601.4493282908122,299.82258681797384L601.5060768239339,299.15558257707846L601.6337610234579,299.6935680195108L602.6836088862101,299.9601926077421L602.7261702860513,299.9661649021923L604.4853748128255,300.120183452512L604.8968016779581,299.9675632729513L605.152170077006,300.35100268002157L605.4075384760539,300.67544616882907L605.7480296747843,301.06888419424774L606.1027080067952,301.6407970145391L606.4148249389649,301.19221211598807L606.7269418711344,301.16712242019094L609.4224971944172,301.5342089310748L610.1176667251586,302.0902763171477L610.8979590555826,302.2734914385904L615.0973505065919,302.5024558571043L615.3101575057983,302.48128551460735L616.0904498362223,302.75325885613967L616.9416778330485,302.31815051357324L619.1832448913575,301.74941442139317L620.3040284205119,302.32732714183277L620.3182155537924,302.38172699055315L620.502648286438,302.85579544860377L620.5168354197184,302.6806966233609L621.7653031483968,303.1237247320682L622.7867767445882,303.66138800437767L623.0847065434774,303.6429292778132L623.49613340861,302.8743638747657L624.0636187398275,302.9387589170551L626.4044957310995,302.9058336197631L627.0854781285605,303.4043148176143L627.8090219258627,303.9758059069946L627.9508932586671,304.23619667776643L629.9938404510498,304.5723201595948L630.2492088500976,304.99398198636607L630.3343316497803,304.9318271397219L630.5755129155477,305.22955920173246L630.8308813145956,305.57646415925194L634.9877113657634,306.10415495728313L635.1295826985677,306.0334179430818L635.8389393625895,306.51477261870974L635.8531264958699,307.0197675945476L636.732728759257,307.3366654795874L637.1725298909506,307.7025603639522L637.7258280888875,307.82845061088636L637.7967637552897,308.36577402849576L637.8251380218505,308.90611525371565L638.1514420873007,309.22407744553504L640.4213834121704,309.7004939126349L641.4996055414836,310.1651969898145L641.7691610738118,310.6466059410412L642.3792078048706,310.08688202773436L643.3155586013794,309.66672168333724L644.6491491297404,310.19189942028424L644.734271929423,309.72709498721565L646.0820495910644,309.33954313391024L647.628447118632,309.84499887348085L647.8270669845581,310.26174990724314L648.2668681162515,310.1361833970426L649.7281428441365,310.30513791182443L650.2672539087931,310.0763926965421L650.9766105728149,310.51071962755253L652.2392654347738,310.6808075126636L653.4309846303304,310.3935591397599L654.168715560913,310.9016708962759L654.523393892924,309.495561122934L655.076692090861,309.5545987397146L655.4739318227132,309.9875031608054L655.5732417556762,309.8877461879358L655.7009259552002,310.02807339328376L655.7434873550415,310.2704277852294L655.7860487548828,310.78171075509744L656.0414171539308,311.19105212595673L656.9068322840374,311.39989128331985L657.3466334157308,310.6587523201047L657.871557347107,309.8132236665915L658.5383526112873,310.10410745043544L658.9355923431397,310.4713961947886L659.4605162745158,310.72415107101415L660.1698729385375,310.7492775036887L662.7944925954182,311.22455812999823L664.0145860575358,311.60086453987276L664.3692643895467,311.83945484410134L664.6246327885946,310.78555011523576L665.419112252299,311.0308258503656L665.8163519841512,311.3538138915911L666.3412759155274,311.61484821164504L666.4831472483318,312.0334607988572L667.2634395787558,312.0742823240608L667.5613693776448,312.5899249685147L668.3984102411906,313.09371539230193L669.4624452372233,313.5061659343907L670.9379070983887,313.01529000980787L671.3351468302409,312.3986919857597L672.0019420944213,312.76882414329714L672.5978016921997,312.93199147525615L673.4348425557455,313.00981944703034L673.5909010218303,313.36917111926516L675.3926669484456,313.87638035333634L675.6764096140544,314.0323495042613L676.4425148111978,314.54445317092075L677.7335439397176,314.71607398802524L677.8896024058024,314.408937280129L680.8121518615723,314.0715101335591L681.7910640579224,314.4375708195697L682.2308651896159,314.5822953633301L683.309087318929,315.00797180310764L683.3374615854899,314.94391692064016L683.5077071848552,314.5738792969011L683.5928299845378,314.8941178084066L683.8907597834269,314.98799158764757L683.9758825831095,315.2283970084779L683.9900697163899,315.3016179957514L684.8271105799357,315.6878206534622L684.9831690460205,316.0753715190342L685.5932157770793,316.54829591024816L687.8489699686687,316.9797398680726L688.2320225672404,317.14951883019387L688.2603968338012,317.5767479852872L688.3029582336426,317.74139106635516L688.5299523661295,317.7362975236759L688.7853207651774,318.181024504081L689.1541862304688,318.5789331988711L689.2251218968709,319.0618751498639L689.2676832967122,318.7592305076755L690.1614726933797,318.8643456904883L691.2822562225342,318.99965917998185L691.4950632217408,319.4775925094738L691.6085602879842,319.90125485129573L692.0767356862386,319.58417911354627L692.9563379496257,319.8410415141303L693.1123964157105,319.50526767878216L693.4387004811605,319.53112406281576L696.3612499369303,320.0290546427228L698.5886298619588,320.4173057570195L699.0426181269328,320.3131928992809L699.0709923934937,320.7525836795151L699.7094133911132,321.14700183536246L699.8512847239177,320.65570485229205L700.4613314549764,320.87400072690883L701.0571910527548,321.23551682726054L701.2558109186808,321.5638228107639L701.4969921844483,322.0109445834706L702.7028985132853,322.51792726434564L703.6392493097941,322.5393725023789L703.7243721094767,322.8421279240507L705.9091906346639,323.30613828104856L706.3915531661987,322.21553695978L706.6185472986857,321.0880048158802L707.7818922276815,321.26612401317607L707.895389293925,321.74490953176183L709.9950850194294,322.17299986157354L713.556055472819,322.3185649127833L713.5702426060994,322.7464121643233L713.8397981384278,323.0618600704311L713.9391080713908,322.74840205282453L714.4782191360474,322.6285919424414L715.1450144002279,322.76219352554443L715.6841254648845,323.20771195478136L716.4360435287475,323.54658134115124L718.4506164545695,323.9003899334022L718.9187918528239,324.3479065907003L719.1032245854695,324.6200723064841L720.4793765136719,324.25831830697956L721.0326747116088,324.6401173451678L721.5717857762654,325.0777942158482L721.7420313756306,325.5314456558051L722.0541483078002,325.3494110586041L722.2527681737264,324.687833113636L724.1822182998658,324.5625890298533L724.4943352320353,325.02333701922436L725.0760076965332,325.4419275140142L725.6434930277507,325.9164508571198L727.0196449559529,325.5297272909325L727.5445688873291,325.01402371665364L727.57294315389,324.5700484520898L730.2543113438924,324.67425726270204L731.1764750071208,325.1507338518615L731.5879018722535,325.485199264642L732.7938082010905,325.92912209225364L733.4180420654297,326.08045258408646L733.6308490646362,326.3998292645536L735.1346851923624,326.4828994589649L735.4326149912516,326.8474335485838L735.5886734573364,327.0762780899429L735.6454219904581,326.31239505005874L737.135070984904,326.46051122209116L738.6814685124715,326.4958611499172L738.8233398452759,326.88987323105437L739.1354567774455,327.2515990349567L739.4759479761759,327.46283273394647L740.2988017064413,327.93753705884L740.4122987726847,328.373322236658L740.8237256378173,328.6846845003202L740.8520999043782,328.50219638756954L741.1642168365479,328.6939976098579L741.6607665013631,328.8888534149631L742.1573161661784,328.71741496726247L743.1787897623698,328.3694200336971L743.1929768956502,328.80349670512123L743.4909066945394,328.9746263296524L744.1860762252808,329.390468155504L744.2002633585612,329.5975888951833L744.4414446243287,329.6693813246806L745.0373042221069,329.9988140441155L745.7324737528483,330.48857213322356L745.8317836858114,330.8685282792429L746.470204683431,331.18168127028594L747.2363098805746,331.5074807863915L749.0097015406291,331.5706265643795L749.3501927393595,331.91848967782545L750.2156078694661,331.59192634145353L750.6128476013184,332.0430434236181L752.3720521280925,332.45775064386515L753.59214559021,332.88998943788647L753.7198297897338,333.0520904285151L754.5426835199992,333.47544612610164L755.1101688512166,333.90928043608227L755.8337126485189,334.1622900752783L756.1600167139688,334.41519270797585L757.2949873764038,334.8336784682289L757.791537041219,335.21948914443436L758.1745896397908,335.2585770621121L758.2313381729126,334.8085013074265L758.2880867060344,334.8896050106509L759.252811769104,335.28920204659L759.2811860356649,335.67061119411335L759.7635485671997,336.0025681767432L761.5653144938151,336.3774028745602L761.6078758936565,336.8229589613432L761.9767413589477,337.18748835938044L762.8847178888957,337.57062961504585L763.5373260197957,337.7866764945077L763.8778172185262,338.18820455005573L765.2397820134481,338.28056139628666L766.0768228769938,338.03158753221675L766.1761328099569,338.4341922019887L766.2612556096395,338.80188620881796L766.3463784093221,339.07282392935656L766.7152438746135,339.5056171225L766.8145538075765,339.90669197412586L767.0699222066244,340.00319747433736L767.0982964731852,340.3155754994297L767.4246005386352,340.74000805531784L768.2190800023396,340.9876667525198L768.3751384684244,341.3169322271648L768.4602612681072,341.17415241506205L770.148530128479,341.4892090301916L770.8295125259399,340.8418903305622L772.5603427861531,341.0145649357923L773.1987637837727,341.2409795000997L773.4399450495401,340.9145329954195L773.5818163823446,341.1529798126007L774.1918631134033,341.3975391871645L774.3195473129272,341.68544233262776L774.6884127782187,342.06010355923775L775.0147168436686,342.1889806405468L775.028903976949,342.61743006700476L775.6531378412883,342.95919368477564L775.9226933736165,343.30296594128504L776.1071261062622,343.3398273712454L776.2631845723471,343.67445010770433L776.3057459721883,343.30829305258646L780.036962024943,343.695595073501L780.1078976913452,344.04159014185603L780.2781432907104,344.2585494791555" fill="none"></path></g></g></g></g><g opacity="0.2"><g><g><g><path style="fill: none;" stroke="rgb(187, 187, 187)" stroke-width="2px" d="M75.2911163192749,-1068.920350450647L77.74549037679037,228.84197587284726L78.28460144144694,29.25722273181467L78.79533823954264,380.3218830320942L80.29917436726889,429.7736656641552L80.98015676472981,335.4096010491825L81.74626196187337,-196.80303530869423L83.84595768737793,505.9311070243188L84.498565818278,311.451394624195L85.49166514790853,568.4257021502461L88.03116200510661,513.0934354412678L88.25815613759359,342.9001670483297L88.45677600351969,-43.302450384862745L90.08829633076986,525.0872612458111L90.64159452870686,303.77549245265465L90.82602726135254,262.0046666150176L90.95371146087646,-192.82153293303412L92.11705638987223,324.37685161184527L92.1454306564331,125.68190465536193L92.38661192220052,-36.242794998135125L96.24551217447916,-1294.2653873763586L96.52925484008789,340.77722543728106L96.57181623992919,-266.4618362829274L97.45141850331625,543.1062456666912L98.60057629903157,78.87699535424647L99.18224876352946,-947.5678089224263L102.04804968617756,432.4483634905924L103.05533614908855,348.79928102101746L103.53769868062336,-337.9616753291095L110.54614252115884,-340.0384032452237L111.97904298248291,277.853910035517L112.04997864888509,430.907072578843L112.36209558105469,-1.8494078855869702L112.41884411417644,156.95500085305855L113.1140136449178,-503.9807799824189L114.36248137359618,236.72770105652725L114.70297257232667,40.258713739383815L115.29883217010497,384.10471465880204L115.44070350290934,350.8258799152654L116.10749876708984,345.2742672542093L116.29193149973551,34.07609158541102L116.51892563222249,337.12823701524263L116.68917123158774,531.6098509163559L117.61133489481608,74.50440958520406L117.88089042714438,240.38557919627178L118.33487869211834,453.66171713280477L119.07260962270101,378.8035224571717L120.88856268259686,259.8760124777895L122.64776720937094,233.11831520362009L122.66195434265137,499.6475368304737L122.98825840810139,-824.3074120216642L123.00244554138183,344.99839716972593L123.71180220540366,-178.14650247799267L125.71218799794515,-576.5194643793137L125.75474939778645,185.3280593222472L127.21602412567138,485.1558848843594L130.62093611297607,492.21372702541777L131.17423431091308,290.66001373743046L131.48635124308268,-19.019464381586356L132.11058510742188,215.3466141666936L132.22408217366535,-434.7427803748383L135.26012869567873,-1023.6736770827569L136.33835082499186,309.47104151772515L136.63628062388102,449.3762794808418L138.09755535176595,519.7933220268579L138.2678009511312,354.63279722117335L139.67232714589437,408.58625908607786L141.07685334065755,456.5091225976374L141.644338671875,353.8427997805449L143.27585899912518,-948.0145413067921L143.47447886505128,137.01135243274675L145.58836172383627,619.922432759943L146.9361393854777,500.3829443439609L147.34756625061036,360.68688753610985L148.68115677897134,-372.0956880788383L149.3337649098714,94.6174440345879L150.85178817087808,539.1418808695691L151.90163603363038,514.5578078298687L152.59680556437175,110.96961440877965L153.093355229187,435.1912907027452L155.9449690185547,464.3776781099355L156.0726532180786,320.7520932868037L156.1010274846395,-64.00438851622305L156.83875841522217,58.697978018206335L156.9238812149048,535.7963543543891L158.2574717432658,546.4555109981629L158.48446587575276,105.5335038922158L158.85333134104408,240.4817935416977L159.42081667226157,449.9822244628253L160.56997446797686,-293.73837856126653L161.2793311319987,117.75160251177654L162.102184862264,404.2174602725925L165.57803251597088,98.67436459295345L167.16699144337971,524.3230102890444L168.42964630533854,279.8841675139472L168.997131636556,538.0032588677794L169.1957515024821,-385.3410465325345L170.40165783131917,371.3053504540665L170.79889756317138,309.41856971826843L171.06845309549968,372.2283085461625L172.0189910252889,411.7515923070685L173.02627748819987,126.82806847542227L173.55120141957602,370.2908314788818L173.65051135253904,394.71724040067335L175.05503754730225,577.3762839344613L175.40971587931315,41.294799105537926L175.99138834381102,-346.62950311386663L185.48258050842287,430.5720072441468L185.59607757466634,84.82745787686137L186.73104823710122,-151.22625495046026L186.787796770223,319.81138785213915L187.96532883249918,526.0409402125431L188.03626449890137,541.2519211574487L188.06463876546223,159.80760535857132L188.97261529541015,64.60158498901274L189.9657146250407,346.8534598143736L190.81694262186684,180.03707264491484L191.5830478190104,-568.7302744694966L192.33496588287355,575.4785618773194L192.675457081604,325.4663394699235L193.21456814626058,522.8058612189718L193.73949207763673,183.36150613857032L193.99486047668455,298.805402119523L195.28588960520426,495.0653526991976L195.79662640329997,379.5360576611473L195.82500066986086,320.04508793999486L196.40667313435873,560.4661874956788L200.26557338663739,442.12653818085266L200.67700025177,318.19413317934135L201.31542124938963,387.94759199608086L201.82615804748536,119.61568324550515L202.45039191182454,350.1036625605407L203.1313743092855,516.3647552785925L207.2172686940511,457.5881481886681L208.3948007563273,123.78508922105478L209.67164275156657,-333.45295171707284L214.16896400146484,-633.5248273091355L215.2755603973389,188.17979732098L215.87141999511718,-466.44858438420187L216.4389053263346,468.63813148307463L216.90708072458906,282.3311184750359L217.361068989563,421.9665679475511L218.66628525136312,573.6179311242889L219.2905191157023,260.1195971615062L219.38982904866535,147.85706477697454L220.028250046285,483.3413875941541L226.3273372227987,450.4013088623397L226.52595708872477,258.0245763244804L226.89482255401612,540.8489794583177L227.39137221883138,574.6703677943106L227.84536048380534,125.83376799177134L228.9945182795207,-149.48130285256244L230.5834772069295,557.1930142966303L230.90978127237955,102.42402826569271L232.52711446634927,-269.41469883217286L237.1946813156128,-1130.6329633236612L237.20886844889324,326.74093885048904L237.37911404825846,289.48374682997536L237.60610818074545,480.816306605067L241.47919556630453,491.0681890158097L242.72766329498293,194.5332496819915L243.74913689117432,-185.06527028085787L243.79169829101562,519.8962838926726L243.80588542429604,201.68215526706123L244.60036488800048,345.72770704290934L245.4657800181071,-499.19830441358334L247.39523014424643,-386.2268090187769L247.934341208903,269.599438077673L248.7571949391683,421.1589996749944L248.78556920572916,457.56667807622983L249.75029426879883,186.55545012972348L249.94891413472496,476.16215427178366L250.06241120096843,97.37826300710597L255.15559204864505,569.3299501144625L256.50336971028645,-756.060824541801L256.88642230885824,370.7688543858594L256.97154510854085,508.58009848294876L258.4186327031453,123.89314582580762L258.50375550282797,562.3010878112691L264.95890114542647,500.84208061241844L267.0727840042114,272.9541030300981L267.54095940246583,-424.69964586597115L267.938199134318,241.04502294871062L268.51987159881594,11.12495859586882L269.0164212636312,484.9012923552521L269.3285381958008,446.53278934294104L269.4845966618856,64.5985040760171L271.1019298558553,-164.1011978021197L272.0099063858032,483.16911320914863L272.8611343826294,323.8269407349697L274.5919646428426,489.3056019002963L274.64871317596436,194.63482353231606L275.6418125055949,543.6215123187878L276.7767831680298,443.4724157672857L277.0037773005168,199.65587730125034L277.79825676422115,519.8206410600612L278.47923916168213,267.6923529333805L278.53598769480385,544.2751713361489L279.89795248972575,-36.20049663013265L279.9263267562866,347.3761238669441L279.95470102284753,-422.29704721488196L281.2031687515259,1.4184780174612082L281.9692739486694,-223.78233366864282L283.65754280904133,513.620054936825L286.8496477971395,375.78114680846244L286.90639633026126,572.2971661880547L287.51644306132,517.6637692900061L287.9704313262939,152.4438381849004L288.0271798594157,431.25032158868385L288.7932850565592,-134.42289128662782L291.4888403798421,93.08629446144914L293.3615419728597,342.989064225391L294.1418343032837,455.2190865592501L294.79444243418374,71.78871315093443L295.37611489868164,146.5750519495133L296.01453589630125,191.85940231591243L297.12113229217533,490.53432456078633L297.5183720240275,570.8572886624113L297.631869090271,124.95875660816981L298.6959040863037,572.9252070929288L299.0647695515951,249.2529923760268L299.1357052179972,523.3601768386458L304.7112485972086,500.0042969275141L305.1226754623413,244.69028860087928L305.7752835932414,484.6803010335033L308.00266351826986,279.1795370375726L308.15872198435466,557.4289047210689L308.45665178324384,316.52309090049494L309.3504411799113,-634.235876354251L312.04599650319415,438.8218578324973L314.07475656229656,333.98201508267795L314.8834231592814,418.4523213298058L317.7208498153687,-391.1243695251366L318.95513041076657,282.8843991005004L319.43749294230145,507.3618862287719L319.65029994150797,318.3171771421042L319.72123560791016,280.2230037577787L320.6433992711385,508.2824052647464L320.7001478042602,492.7246771900362L320.9413290700277,301.0667280726252L322.1897967987061,486.92556451833144L328.0065214436849,508.2322922893018L328.8010009073893,138.5139714678323L329.39686050516764,-419.32204060348056L333.7948718221029,549.7203962203248L334.4758542195638,285.64666225098523L335.04333955078124,569.3941759179258L335.55407634887695,232.973801128419L336.40530434570314,588.47874303993L337.22815807596845,-705.1789045621609L339.0724854024251,362.52275866022234L339.8102163330078,527.842776875907L342.44902312316896,-159.4992765719653L343.7400522516886,367.11113671033337L344.36428611602787,564.6471789878057L345.768812310791,477.07543637150275L350.96130309143064,287.1403273826772L351.0180516245524,325.40106262582873L352.72050761820475,-74.12294120779568L353.45823854878745,523.7567079922469L353.50079994862875,124.77945389039314L353.92641394704185,421.18940764440435L354.5932092112223,527.9854135197514L355.4728114746094,1.8576364907127825L355.6856184738159,319.49838634748977L356.3240394714356,572.5754352126049L357.45901013387044,-787.784600543639L357.70019139963784,169.83357019605663L357.87043699900306,522.8753422255918L359.6012672592163,369.73594621123203L359.77151285858156,563.3397486281306L365.7301088363647,400.5151495907392L365.7584831029256,185.7914799853393L366.680646766154,173.97130053486993L366.8225180989583,358.98782820470944L367.4893133631389,399.58238713489146L369.77344182128905,525.2543526365582L369.90112602081297,325.4806849710595L369.95787455393474,440.1444841536665L374.228201671346,511.6313255981483L375.40573373362224,316.345007710779L376.52651726277674,490.7851461807584L377.4344937927246,-314.66060197181406L378.65458725484217,275.04989409537274L379.0660141199748,-190.594289579946L379.3071953857422,344.4630243510485L379.71862225087483,544.9897586172829L382.62698457336427,485.26373288562814L382.8397915725708,259.3210630244523L384.7692416987101,482.238308416767L384.7834288319906,236.70546071584008L384.9111130315145,-227.91107801121885L388.7132647506714,519.854442847693L389.479369947815,212.79074009407205L390.6569020100912,270.14642850577155L390.7420248097738,546.4787622634268L392.4019194035848,484.8663272020361L393.70713566538495,362.7041474128398L394.4023051961263,370.28993287925806L395.3954045257569,173.9535852851451L395.8919541905721,395.403850745308L397.42416458485917,-138.4142782581489L397.4667259847005,2.4338314065822697L398.2470183151245,584.7424500481991L399.6373573766072,-56.56192968978887L399.9636614420573,353.3367598210133L403.02808223063147,-340.99252348855674L405.35477208862306,547.7739010639632L405.4115206217448,99.74632975836914L405.6385147542318,577.9564022004737L405.8938831532796,281.94234576640036L407.8800818125407,-311.67577495023903L415.25739111836754,414.6863063531991L415.31413965148926,106.89276419447363L415.35670105133056,472.1286454429005L415.9525606491089,306.31284895445873L416.44911031392417,238.32839582197354L416.7896015126546,603.4285925388235L419.3007241032918,449.4061418719087L419.7263381017049,365.6652257300736L421.54229116160076,411.7301382410521L423.0745015558879,599.180723572022L423.3440570882162,331.50528196263156L424.5499634170532,-148.15541910775724L426.8908404083252,-403.36920148350316L427.69950700531,136.10707237568678L429.1324074666341,566.8318912997745L429.6573313980103,451.95553319010196L432.32451245473226,303.3837351095546L432.50894518737795,-162.11619123331275L432.56569372049967,313.78528249691294L432.5798808537801,546.0065160683159L432.72175218658447,469.17273407350314L432.97712058563235,335.683834398637L433.91347138214115,507.20837011091174L433.9702199152629,250.7922293457791L434.8781964452108,359.87073442786226L436.22597410685216,442.73371873731884L436.79345943806965,198.34677811370258L440.3544298914591,530.7984234793438L442.0285116185506,485.4380772590525L443.2344179473877,327.62638040829455L443.9863360112508,547.4383222437676L444.17076874389653,557.5891282432632L444.4970728093465,68.32852692840925L445.5894820719401,476.46872116127037L447.0081953999837,524.4385766192241L447.80267486368814,260.91694386334296L448.65390286051434,422.4206335467033L451.68994938252763,421.52294856902466L452.1439376475016,50.201911132955345L454.4280661056519,513.7370734681823L454.85368010406495,110.49383800086134L456.6980074305216,457.2641709314717L456.93918869628914,170.58637203083165L457.3648026947021,512.8423971946008L460.2164164840698,434.6726061627941L460.85483748168946,265.17354609523755L461.39394854634605,587.8437941504486L466.72831065979005,423.0639025059151L467.9484041219075,211.71197124579103L471.7221815745036,309.9473955968302L473.6941931004842,487.58162247575945L478.9859938140869,529.9896597483591L479.8655960774739,277.26468542510355L480.4047071421306,355.0268973418639L480.4756428085327,162.46190818283438L480.74519834086095,483.88484780944503L482.7030227335612,556.6814784376143L484.2777945276896,269.41564236177777L484.49060152689617,392.4064914682663L490.307326171875,436.31017560565675L491.25786410166415,205.12594204645347L492.5488932301839,466.7817690782569L493.65548962605794,276.6645492478305L496.095676550293,471.06322721760057L497.1455244130452,451.02376561240914L499.55733707071937,81.11868048700155L500.20994520161946,583.8231786215237L500.80580479939783,576.6812010790886L501.0753603317261,212.12022431055524L501.2456059310913,26.29884021345208L501.2881673309326,353.7856103330636L501.9407754618327,623.0836741433613L504.70726645151774,494.01832367334026L504.8916991841634,276.6743054723167L505.8564242472331,496.80736830189636L507.771687240092,-501.5478856868728L507.8993714396159,303.51104742053013L508.0270556391398,-248.41365539748722L510.9779793614705,456.13199959126655L511.20497349395754,361.68356289019493L511.2333477605184,374.29126863232756L512.425066956075,529.7678821519396L516.8372654062906,567.9632282260434L517.3905636042277,276.2216359118656L517.5749963368734,588.9413894631678L518.5539085332234,303.46874905252764L519.6037563959758,546.7424290440915L524.5692530441283,572.3739162237739L524.8671828430176,251.01379833871457L525.1792997751871,443.47499924120393L529.0382000274659,426.37254632046796L530.315042022705,27.090699039015398L530.3859776891072,584.8037955189402L536.8694975982667,445.7856679415017L537.8767840611775,99.48785399517358L539.1394389231364,457.1106227207678L541.3668188481649,423.6001578777944L543.0125263086954,238.79685506152722L543.3388303741455,528.3919335709554L545.7080816319783,272.72762383207584L547.2402920262655,-38.0740768455978L548.6164439544677,552.9482623472736L549.4818590845744,4.825582676499303L549.9925958826701,-96.65173237418746L555.9653789937337,431.9878953691211L555.9937532602946,295.92320801211474L556.1639988596598,555.0230406231328L558.3062559850057,574.8646257772534L558.4339401845297,54.015632121728686L560.7322557759602,491.70202267897236L561.5834837727864,412.7542850693481L562.2928404368082,239.84519989397643L563.1015070337932,564.5619724877704L563.5129338989258,28.43083200642536L564.4492846954346,-660.1063027785239L566.7617874201457,464.98489075924533L567.031342952474,243.34806959862854L567.5988282836913,566.0501497431889L569.5850269429525,479.2033202804819L569.8545824752807,350.23553205532227L570.2234479405721,603.37164378767L570.4930034729005,364.3446373044796L570.9328046045939,524.3693764249864L572.9615646636963,440.38381653559236L573.8979154602051,139.79498941713868L574.0823481928508,-108.38538951802964L574.2809680587768,614.6640243305761L576.4515994506836,353.74722729199306L577.1183947148642,522.3968379259586L577.2886403142294,593.0604818829996L577.3170145807902,125.36970547180518L577.3879502471924,562.0963996541223L585.4604290837606,529.1455136571903L587.2905692769368,200.77318965482038L588.0424873408,368.65505923526655L588.4822884724936,490.8144629934824L588.922089604187,544.5548444226112L589.0781480702717,302.2568590885606L589.1916451365154,-171.9599649970879L589.3051422027588,597.2080085623539L589.9861246002198,100.84692174036918L591.9155747263591,-117.23255211340718L595.1076797144573,574.3106631788603L595.4481709131877,185.9634334419077L596.044030510966,545.0072652635235L596.6540772420248,331.3697859765114L597.6188023050944,564.36635055897L599.264509765625,288.7755219551058L599.9596792963664,-530.7254154692006L600.3143576283774,-72.75559350892438L600.8392815597534,243.52589604559486L601.4493282908122,491.3458081602749L602.6836088862101,438.77269159594215L602.7261702860513,303.0783717017069L604.4853748128255,380.45399322320355L604.8968016779581,220.2902599966128L605.152170077006,500.71329203063254L606.1027080067952,601.3045798291162L606.4148249389649,65.93517101630698L606.7269418711344,287.9971100310546L609.4224971944172,494.3982548035353L615.0973505065919,423.12335449887763L615.3101575057983,291.31852679740183L616.0904498362223,446.2884344309754L616.9416778330485,72.48268880319922L619.1832448913575,1.0605786244693334L620.3040284205119,608.1396093795456L620.3182155537924,331.1938851001674L620.502648286438,554.1623747406671L620.5168354197184,209.7776392771934L621.7653031483968,538.3908842572525L622.7867767445882,589.4355310008958L623.0847065434774,293.82327697000215L623.49613340861,-106.34511907236363L624.0636187398275,337.25567769759294L626.4044957310995,285.34418719907086L627.0854781285605,569.5155831456599L630.2492088500976,530.8790567491511L630.3343316497803,271.6065566157924L630.5755129155477,465.0009532275194L634.9877113657634,589.7656058983961L635.1295826985677,267.97592530035286L635.8389393625895,565.7121479132938L637.1725298909506,505.2327506988883L637.7258280888875,375.84873433730394L637.7967637552897,598.9356906987332L641.7691610738118,572.0802667038782L642.3792078048706,5.868343354143914L643.3155586013794,81.11174843276142L644.6491491297404,596.1122425417259L644.734271929423,56.46425191068995L646.0820495910644,97.99412467779416L647.628447118632,585.7167887830658L647.8270669845581,537.9084325378437L648.2668681162515,241.48970139107928L649.7281428441365,402.7480091914755L650.2672539087931,184.8158896295681L650.9766105728149,548.5434874559955L652.2392654347738,403.97413233162547L653.4309846303304,152.70821903133753L654.168715560913,590.0589064086164L654.523393892924,-463.6550948967926L655.076692090861,342.0429992858279L655.4739318227132,548.4090505337176L655.5732417556762,254.9020068177259L655.7009259552002,387.43884019125625L659.4605162745158,451.1686327088909L660.1698729385375,324.72204223873024L662.7944925954182,575.7377757759202L666.4831472483318,546.3012326752648L667.2634395787558,334.9371302041657L667.5613693776448,601.6114275309853L669.4624452372233,545.0492667727218L670.9379070983887,37.230625564495156L671.3351468302409,-34.28891848772143L672.5978016921997,404.8166978502418L673.4348425557455,356.8711446981832L673.5909010218303,516.0446131162189L677.7335439397176,411.8089101259246L677.8896024058024,140.51621189370852L680.8121518615723,122.8830877558978L681.7910640579224,522.0082256815416L683.309087318929,556.7506465390082L683.3374615854899,278.5393810842001L683.5077071848552,104.1097369741121L683.5928299845378,497.17208742417546L683.8907597834269,368.46076915947987L683.9758825831095,452.27236978957404L683.9900697163899,357.072912406553L684.8271105799357,536.1751863046871L688.3029582336426,412.15978118614527L688.5299523661295,314.813120002235L688.7853207651774,573.5983143735748L689.2251218968709,596.836914998994L689.2676832967122,144.5580167226893L690.1614726933797,379.4127890484786L691.6085602879842,564.4762845950796L692.0767356862386,136.40656279313657L692.9563379496257,468.3410640753245L693.1123964157105,125.2428103677978L693.4387004811605,334.50124520097205L696.3612499369303,608.5260393105908L698.5886298619588,545.5298009447192L699.0426181269328,259.90370860190643L699.0709923934937,575.8846406519226L699.7094133911132,550.3307298986848L699.8512847239177,34.97347168107456L700.4613314549764,447.90109982712346L702.7028985132853,618.3774190783239L703.6392493097941,335.06306252286197L703.7243721094767,499.77229776037467L713.8397981384278,508.5818796357743L713.9391080713908,138.26987329861632L714.4782191360474,252.0679198830306L715.1450144002279,401.4999666390754L719.1032245854695,485.57663811174643L720.4793765136719,110.17252444969247L721.0326747116088,550.7440215399107L721.7420313756306,594.5557155524277L722.0541483078002,217.3253947238219L722.2527681737264,-68.17787028292318L724.1822182998658,250.13798463402043L724.4943352320353,599.0030977053289L725.6434930277507,608.4711685710672L727.0196449559529,95.09928598996635L727.5445688873291,17.522538616973936L727.57294315389,59.668208869078924L730.2543113438924,386.89330998754633L733.6308490646362,517.7278667220949L735.1346851923624,376.2807361064094L735.4326149912516,545.5192183295078L737.135070984904,415.4876165212334L738.6814685124715,347.75745103584023L738.8233398452759,564.0292633751204L740.8237256378173,516.6976463231277L740.8520999043782,218.2364784637472L741.1642168365479,444.6627393402834L741.6607665013631,446.78133237101L742.1573161661784,224.92546150568865L743.1787897623698,117.54999526762526L743.1929768956502,591.9429248214964L744.2002633585612,455.3990311339009L744.4414446243287,373.3029374176056L745.0373042221069,530.3482651839125L747.2363098805746,530.15591672517L749.0097015406291,370.0968302386885L749.3501927393595,544.290367297643L750.2156078694661,132.09678271922374L750.6128476013184,607.8022373717082L757.791537041219,572.3990368971835L758.1745896397908,359.3031403941056L758.2313381729126,57.77588643289039L758.2880867060344,384.8420156500678L765.2397820134481,395.51609546616424L766.0768228769938,183.6426715422649L766.1761328099569,588.2422548862775L768.3751384684244,546.736732564334L768.4602612681072,252.0441390858456L770.148530128479,538.2807416176589L773.1987637837727,482.9187087961448L773.4399450495401,136.52049238828735L773.5818163823446,490.5377424486408L775.9226933736165,559.566881829393L776.1071261062622,366.54264407695297L776.2631845723471,554.4299247554201L776.3057459721883,112.55638088005821L780.036962024943,587.9158867122251" fill="none"></path></g></g></g></g></g><g><g opacity="0.710483"><span fill="rgb(0, 0, 0)" stroke="none" stroke-width="1px">Alt + Scroll to Zoom</span></g></g></g><g transform="translate(51, 376)" clip-path="url(#clip_1)"><clipPath id="clip_1"><rect width="851" height="23"></rect></clipPath><g><g><line x1="0" y1="0" x2="0" y2="5" style="visibility: inherit;" fill="rgb(0, 0, 0)" stroke="rgb(204, 204, 204)" stroke-width="1px"></line><line x1="70.93566640218098" y1="0" x2="70.93566640218098" y2="5" style="visibility: inherit;" fill="rgb(0, 0, 0)" stroke="rgb(204, 204, 204)" stroke-width="1px"></line><line x1="141.87133280436197" y1="0" x2="141.87133280436197" y2="5" style="visibility: inherit;" fill="rgb(0, 0, 0)" stroke="rgb(204, 204, 204)" stroke-width="1px"></line><line x1="212.80699920654297" y1="0" x2="212.80699920654297" y2="5" style="visibility: inherit;" fill="rgb(0, 0, 0)" stroke="rgb(204, 204, 204)" stroke-width="1px"></line><line x1="283.74266560872394" y1="0" x2="283.74266560872394" y2="5" style="visibility: inherit;" fill="rgb(0, 0, 0)" stroke="rgb(204, 204, 204)" stroke-width="1px"></line><line x1="354.67833201090497" y1="0" x2="354.67833201090497" y2="5" style="visibility: inherit;" fill="rgb(0, 0, 0)" stroke="rgb(204, 204, 204)" stroke-width="1px"></line><line x1="425.61399841308594" y1="0" x2="425.61399841308594" y2="5" style="visibility: inherit;" fill="rgb(0, 0, 0)" stroke="rgb(204, 204, 204)" stroke-width="1px"></line><line x1="496.54966481526696" y1="0" x2="496.54966481526696" y2="5" style="visibility: inherit;" fill="rgb(0, 0, 0)" stroke="rgb(204, 204, 204)" stroke-width="1px"></line><line x1="567.4853312174479" y1="0" x2="567.4853312174479" y2="5" style="visibility: inherit;" fill="rgb(0, 0, 0)" stroke="rgb(204, 204, 204)" stroke-width="1px"></line><line x1="638.4209976196289" y1="0" x2="638.4209976196289" y2="5" style="visibility: inherit;" fill="rgb(0, 0, 0)" stroke="rgb(204, 204, 204)" stroke-width="1px"></line><line x1="709.3566640218099" y1="0" x2="709.3566640218099" y2="5" style="visibility: inherit;" fill="rgb(0, 0, 0)" stroke="rgb(204, 204, 204)" stroke-width="1px"></line><line x1="780.2923304239908" y1="0" x2="780.2923304239908" y2="5" style="visibility: inherit;" fill="rgb(0, 0, 0)" stroke="rgb(204, 204, 204)" stroke-width="1px"></line><line x1="851.2279968261719" y1="0" x2="851.2279968261719" y2="5" style="visibility: inherit;" fill="rgb(0, 0, 0)" stroke="rgb(204, 204, 204)" stroke-width="1px"></line></g><g transform="translate(0, 8)"><text style="text-anchor: middle; visibility: hidden; font-family: Roboto, sans-serif; font-size: 12px; font-weight: 200;" x="0" y="0" dx="0em" dy="0.95em" fill="rgb(255, 255, 255)" stroke="none" stroke-width="1px">-5k</text><text style="text-anchor: middle; visibility: inherit; font-family: Roboto, sans-serif; font-size: 12px; font-weight: 200;" x="70.93566640218098" y="0" dx="0em" dy="0.95em" fill="rgb(255, 255, 255)" stroke="none" stroke-width="1px">0</text><text style="text-anchor: middle; visibility: inherit; font-family: Roboto, sans-serif; font-size: 12px; font-weight: 200;" x="141.87133280436197" y="0" dx="0em" dy="0.95em" fill="rgb(255, 255, 255)" stroke="none" stroke-width="1px">5k</text><text style="text-anchor: middle; visibility: inherit; font-family: Roboto, sans-serif; font-size: 12px; font-weight: 200;" x="212.80699920654297" y="0" dx="0em" dy="0.95em" fill="rgb(255, 255, 255)" stroke="none" stroke-width="1px">10k</text><text style="text-anchor: middle; visibility: inherit; font-family: Roboto, sans-serif; font-size: 12px; font-weight: 200;" x="283.74266560872394" y="0" dx="0em" dy="0.95em" fill="rgb(255, 255, 255)" stroke="none" stroke-width="1px">15k</text><text style="text-anchor: middle; visibility: inherit; font-family: Roboto, sans-serif; font-size: 12px; font-weight: 200;" x="354.67833201090497" y="0" dx="0em" dy="0.95em" fill="rgb(255, 255, 255)" stroke="none" stroke-width="1px">20k</text><text style="text-anchor: middle; visibility: inherit; font-family: Roboto, sans-serif; font-size: 12px; font-weight: 200;" x="425.61399841308594" y="0" dx="0em" dy="0.95em" fill="rgb(255, 255, 255)" stroke="none" stroke-width="1px">25k</text><text style="text-anchor: middle; visibility: inherit; font-family: Roboto, sans-serif; font-size: 12px; font-weight: 200;" x="496.54966481526696" y="0" dx="0em" dy="0.95em" fill="rgb(255, 255, 255)" stroke="none" stroke-width="1px">30k</text><text style="text-anchor: middle; visibility: inherit; font-family: Roboto, sans-serif; font-size: 12px; font-weight: 200;" x="567.4853312174479" y="0" dx="0em" dy="0.95em" fill="rgb(255, 255, 255)" stroke="none" stroke-width="1px">35k</text><text style="text-anchor: middle; visibility: inherit; font-family: Roboto, sans-serif; font-size: 12px; font-weight: 200;" x="638.4209976196289" y="0" dx="0em" dy="0.95em" fill="rgb(255, 255, 255)" stroke="none" stroke-width="1px">40k</text><text style="text-anchor: middle; visibility: inherit; font-family: Roboto, sans-serif; font-size: 12px; font-weight: 200;" x="709.3566640218099" y="0" dx="0em" dy="0.95em" fill="rgb(255, 255, 255)" stroke="none" stroke-width="1px">45k</text><text style="text-anchor: middle; visibility: inherit; font-family: Roboto, sans-serif; font-size: 12px; font-weight: 200;" x="780.2923304239908" y="0" dx="0em" dy="0.95em" fill="rgb(255, 255, 255)" stroke="none" stroke-width="1px">50k</text><text style="text-anchor: middle; visibility: hidden; font-family: Roboto, sans-serif; font-size: 12px; font-weight: 200;" x="851.2279968261719" y="0" dx="0em" dy="0.95em" fill="rgb(255, 255, 255)" stroke="none" stroke-width="1px">55k</text></g><line x1="0" y1="0" x2="851.2279968261719" y2="0" fill="rgb(0, 0, 0)" stroke="rgb(204, 204, 204)" stroke-width="1px"></line></g></g></g></g></svg>